<?xml version="1.0" encoding="UTF-8" standalone="no"?>
<svg xmlns="http://www.w3.org/2000/svg" width="825.5" height="68.3" viewBox="0 0 825.5 68.3"><defs/><path fill="#f9e748" d="M599.5 67.3c-11-2.6-17.9-9.6-22.6-22.8-5.7-15.7-11.6-18.6-37.6-18.6-23 .1-38.6 2.7-97 16-48.5 11-77 15.6-99 15.7-11.6 0-17.2-1.2-23.6-5.3-6.3-4-9.5-8.9-12.6-19-4.3-14.2-6.4-15.4-25.8-15.4-20.7.1-45 4.5-133.5 24.2-48.2 10.7-58.2 12.6-67.5 13-10.1.5-11.2.3-13.7-1.6-6.3-5-4-12.4 7.5-24.7l7.1-7.7-4.3.8c-2.4.4-13 3.6-23.5 7.1-25.6 8.6-41.7 13.4-45 13.4-3.2 0-7.3-3.7-8.2-7.5-.4-1.7-.1-4 .9-6 1.4-3 2.5-3.7 8.9-5.5l32.8-10.5c14-4.6 28.5-9 32.2-9.6C83 2 89.8 3.1 95.8 7c5.6 3.6 7.3 6.6 6.7 12-.4 4.1-1.5 6.1-7.5 14.4-1.6 2.4-1.6 2.5 0 1.8A4663 4663 0 01219.8 8c28.7-5.3 50.7-8 66.5-8 12.3 0 14.7.2 19.9 2.3 9 3.6 13.6 8.8 17.6 20 5.4 15 9.6 17.8 26.3 16.6 25-1.8 43.6-5 87-15C488.9 12.1 503.9 9.4 530 7.4c35.7-2.8 55.5 5.3 62.8 25.7 4.6 13 7.1 15.7 16.6 17.4 10 1.8 25.6-.8 50.5-8.7 25.5-8.1 81.1-24.5 92-27 13-3.1 34-4.3 44.6-2.5 13.1 2.2 22.4 8.2 26 16.8.8 1.8 1.9 7.8 2.5 13.3 1 8.7.9 10.4-.5 12.5-2 3-7.5 4.2-11.6 2.5-5-2.1-6.3-4.3-7-13.2-.7-7-1.1-8.5-3.3-10.4-4.1-3.5-14.5-4.8-27.5-3.4-18 2-26.8 4-71.7 17.6-29 8.7-56.8 16-71.4 18.8-9 1.7-26.2 2-32.4.5z"/></svg>