<?xml version="1.0" encoding="UTF-8" standalone="no"?>
<svg xmlns="http://www.w3.org/2000/svg" viewBox="0 0 272.2 252.9"><defs/><path fill="#f9e748" d="M79.8.2l192.5 113.5-79.6 139.6L.1 139.7z"/><path d="M66.1 92.2v67.6h11c-.2-9.3-.2-18.7-.2-28h7.9l8.6 28h11.7c-3.2-10.2-6.7-20.4-10-30.5l3-2.4c10.5-8.2 8.7-26-3.3-32.4-3.7-1.9-5.9-2-16.2-2.3H66.1zm-38.9.2l-13.1 23v32l19.5 11.5c8.8-2.8 20-12.6 23-21.1 2.8-8 2.5-18.3-.7-25.3-4.7-10-15.7-20-25-20l-3.7-.1zm190.7.1c-27.1.1-42.4 32-26 53.9a37.5 37.5 0 0018.6 12.3 40.7 40.7 0 0021.5-2 33.6 33.6 0 0018.3-28v-8H216c.1 3.6-.1 7.1.1 10.7l22.8.4-.9 3c-4.1 14.4-25 18-36.1 6.3-13.1-13.9-2.7-37.3 16.5-37.3a19.2 19.2 0 0111.5 3l5.6 3.2c2.5-3 4.5-5.2 6.5-8.3.1-1-9.6-6.9-13.4-8-2.1-.7-7-1.2-10.7-1.2zm-74.1.2a33.7 33.7 0 00-33.5 30.6 33.9 34 0 0025 35 34.2 34.2 0 0039.8-20.3 38 38 0 00-1.1-26.7 33.7 33.7 0 00-30.2-18.6zM25 103.7h2.5c6.2 0 14.1 5.4 17.4 12 5.2 10.3 2.5 21-7.2 28.6v-.1c-3.2 2.4-11.2 4.9-12.2 3.8-.3-.3-.5-10.4-.5-22.5v-21.8zm58 0c5.1 0 6.5.4 8.5 2.5 3.1 3.1 3.2 7.5.1 11.1-1.8 2.2-3.4 2.8-7.7 3.2-3 .2-6.5.6-6.9.2-.2-5-.2-11.4-.2-16.9h6.2zm60 0a21.3 21.3 0 012.8.2c21.6 1.6 27.6 32 8.4 41.8h-.2a22.5 22.5 0 01-29.5-8.3 21.3 21.3 0 012.6-26.2 21.3 21.3 0 0116-7.4zm-85 69.6l14.3 8.5h161.2l4.8-8.5H58z"/></svg>